<svg width="55" height="55" viewBox="0 0 55 55" fill="none" xmlns="http://www.w3.org/2000/svg">
<path d="M19.5812 55C14.3518 55 9.43581 52.9636 5.73382 49.2662C2.03644 45.5665 0 40.6482 0 35.4188C0 19.4752 13.7713 10.5923 25.9185 2.75288L29.9476 0.152042V9.64775C40.8739 3.93466 50.6346 1.20251 51.0861 1.08042L55 0L53.9196 3.91393C53.7952 4.36314 51.0653 14.1261 45.3499 25.0524H54.8457L52.2448 29.0815C44.4077 41.2287 35.5225 55 19.5788 55H19.5812ZM25.3403 8.61801C14.6836 15.5889 4.60733 23.1634 4.60733 35.4188C4.60733 39.418 6.16461 43.1776 8.9912 46.0088C11.8224 48.8377 15.5797 50.3927 19.5812 50.3927C31.8366 50.3927 39.4111 40.3164 46.382 29.6597H37.4944L39.4664 26.2111C43.7351 18.7587 46.6124 11.311 48.1489 6.8534C43.689 8.38995 36.2436 11.2672 28.7912 15.5359L25.3426 17.5079V8.61801H25.3403ZM20.733 43.4817C15.6511 43.4817 11.5183 39.3489 11.5183 34.267C11.5183 29.1851 15.6511 25.0524 20.733 25.0524C25.8149 25.0524 29.9476 29.1851 29.9476 34.267C29.9476 39.3489 25.8149 43.4817 20.733 43.4817ZM20.733 29.6597C18.192 29.6597 16.1257 31.7261 16.1257 34.267C16.1257 36.808 18.192 38.8743 20.733 38.8743C23.2739 38.8743 25.3403 36.808 25.3403 34.267C25.3403 31.7261 23.2739 29.6597 20.733 29.6597Z" fill="url(#paint0_linear_4523_274)"/>
<defs>
<linearGradient id="paint0_linear_4523_274" x1="55" y1="27.5" x2="0" y2="27.5" gradientUnits="userSpaceOnUse">
<stop stop-color="#77B5F9"/>
<stop offset="1" stop-color="#FA8EA5"/>
</linearGradient>
</defs>
</svg>
