<svg width="54" height="62" viewBox="0 0 54 62" fill="none" xmlns="http://www.w3.org/2000/svg">
<path d="M51.7435 7.32532C49.8255 5.01223 46.4901 4.49459 46.4901 4.49459C46.4901 4.49459 43.9891 2.14443 39.7192 0.845149C34.9749 -0.598501 20.2015 -0.360495 12.9712 2.87731C5.74092 6.11512 5.21349 9.70994 4.62323 12.7943C4.44 13.7515 4.35166 15.4956 4.32287 17.5239C2.77067 16.4327 1.62157 15.1783 1.62157 15.1783C1.62157 15.1783 0.176684 17.3158 1.03131 18.8375C2.07178 20.6908 3.06514 21.6116 3.925 22.0213C3.83208 22.0427 3.73719 22.0551 3.63969 22.0466C2.45918 21.9439 0 21.7384 0 21.7384C0 21.7384 0.0981583 24.7194 1.18051 26.0557C1.78451 26.8016 3.18424 27.7387 4.5434 28.4215C4.57154 28.9859 4.59902 29.4509 4.62389 29.7832C4.69391 30.7372 4.87124 32.1184 5.07018 33.5003L4.6252 51.6447C4.6252 51.6512 4.6265 51.6577 4.6265 51.6642L4.6252 51.7143C4.5879 53.2458 5.68726 55.023 7.06932 55.7026L17.2365 60.715C18.6186 61.3946 21.011 62 22.5527 62H35.9467C37.4884 62 39.8809 61.3959 41.2629 60.717L51.4301 55.6889C52.8122 55.0093 53.9122 53.1911 53.8742 51.6597L53.4214 33.2083C53.5935 31.0825 53.7676 28.9293 53.8749 27.5884C54.2983 22.3048 53.6616 9.63841 51.7435 7.32532ZM49.6351 52.2176L39.5124 57.2236C38.6349 57.6547 36.8308 58.0982 35.946 58.0982H22.5521C21.668 58.0982 19.8645 57.6541 18.9778 57.2177L8.81457 52.2066C8.74848 52.152 8.58881 51.899 8.55151 51.7488L9.10839 29.0295C9.86617 28.1763 10.6783 27.5046 11.3608 27.2848C11.6965 27.1768 12.1258 26.9811 12.6002 26.7489C11.3915 28.3668 10.3072 29.9256 10.071 30.5993C9.48532 32.2673 9.34593 33.6342 9.34593 33.6342C9.34593 33.6342 10.391 40.2607 11.5617 42.1043C12.7324 43.9479 13.7454 46.036 13.7454 46.036L12.9837 42.7253L16.872 45.7856H19.6316L27.9108 42.274H29.2491H30.5873L38.8666 45.7856H41.6261L45.5145 42.7253L44.7528 46.036C44.7528 46.036 45.7657 43.9479 46.9364 42.1043C48.1071 40.2607 49.1522 33.6342 49.1522 33.6342C49.1522 33.6342 49.0121 32.2673 48.4271 30.5993C47.8421 28.9313 42.0619 21.8444 42.0619 21.8444L45.2102 28.4514V29.7325C45.2102 29.7325 39.7029 31.4922 37.1102 34.0381C34.5175 36.584 30.7541 37.6374 30.7541 37.6374H29.2491H27.744C27.744 37.6374 23.9806 36.584 21.3879 34.0381C18.7953 31.4922 13.2879 29.7325 13.2879 29.7325V28.4514L14.5692 25.7618C16.3884 24.8715 18.1474 24.1998 18.1474 25.5894C18.1474 27.9025 15.4913 28.6731 15.4913 28.6731C15.4913 28.6731 20.5084 28.6731 25.6728 27.1313C30.8373 25.5894 34.6739 21.4263 37.3301 20.3468C39.9862 19.2673 45.1506 20.0385 48.8394 24.6641C48.9997 24.865 49.1515 25.0809 49.2994 25.3027L49.9473 51.7C49.9119 51.8515 49.7536 52.1149 49.6351 52.2176ZM13.0517 33.5159L26.3946 39.2339L25.1716 41.2244L12.8888 39.0303L13.0517 33.5159ZM32.1035 39.2339L45.4464 33.5159L45.61 39.0303L37.3196 40.5111L33.3265 41.2244L32.1035 39.2339Z" fill="url(#paint0_linear_4523_264)"/>
<defs>
<linearGradient id="paint0_linear_4523_264" x1="54" y1="31" x2="0" y2="31" gradientUnits="userSpaceOnUse">
<stop stop-color="#FC9482"/>
<stop offset="0.49" stop-color="#F889CC"/>
<stop offset="1" stop-color="#74B7FA"/>
</linearGradient>
</defs>
</svg>
