<svg width="71" height="59" viewBox="0 0 71 59" fill="none" xmlns="http://www.w3.org/2000/svg">
<path d="M71 20.0974L66.1501 18.0244L70.2981 0.649426L60.7841 21.1277L63.7924 22.3852L61.9692 27.5872C61.4056 26.53 60.6201 25.7065 59.7069 25.2423L59.3342 9.99093C59.3178 9.32312 59.0063 8.75117 58.6508 8.22717C55.63 3.77902 46.692 0 35.4924 0C24.254 0 15.2647 3.78033 12.309 8.27642C11.9726 8.78795 11.6829 9.3461 11.6671 9.99159L11.2944 25.2429C10.3812 25.7078 9.59572 26.5306 9.03211 27.5878L7.20897 22.3859L10.2173 21.1284L0.701869 0.650083L4.84987 18.025L0 20.0981L8.10573 31.1712C8.10178 31.2828 8.09322 31.3925 8.09322 31.5054C8.09322 34.2193 9.28363 36.5504 10.9909 37.5971L10.7242 48.5435C10.7242 48.5501 10.7256 48.5566 10.7256 48.5632L10.7242 48.6138C10.6867 50.1602 11.7928 51.9548 13.1834 52.641L23.4132 57.7025C24.8037 58.3887 27.2109 59 28.7621 59H42.2385C43.7898 59 46.1969 58.39 47.5875 57.7044L57.8172 52.6272C59.2078 51.941 60.3146 50.105 60.2764 48.5586L60.0084 37.5971C61.7157 36.5504 62.9068 34.2193 62.9068 31.5054C62.9068 31.3925 62.8982 31.2828 62.8943 31.1712L71 20.0974ZM51.7974 24.6808L51.962 31.4128L43.6212 33.2206L39.6036 34.0913L38.373 31.6617L51.7974 24.6808ZM19.2033 24.6808L32.6283 31.661L31.3978 34.0906L19.0393 31.4122L19.2033 24.6808ZM56.0119 49.122L45.8269 54.1769C44.944 54.6123 43.1287 55.0601 42.2385 55.0601H28.7621C27.8726 55.0601 26.058 54.6116 25.1659 54.171L14.9401 49.1108C14.8736 49.0557 14.7129 48.8003 14.6754 48.6486L14.9532 37.282L19.5173 41.0997L35.5003 36.7231L51.4846 41.101L56.0494 37.2826L56.3259 48.5993C56.2904 48.7523 56.1311 49.0183 56.0119 49.122Z" fill="url(#paint0_linear_4523_266)"/>
<defs>
<linearGradient id="paint0_linear_4523_266" x1="11" y1="30" x2="71" y2="40" gradientUnits="userSpaceOnUse">
<stop stop-color="#74B7FA"/>
<stop offset="0.505" stop-color="#F889CB"/>
<stop offset="1" stop-color="#FC9385"/>
</linearGradient>
</defs>
</svg>
