<svg width="50" height="51" viewBox="0 0 50 51" fill="none" xmlns="http://www.w3.org/2000/svg">
<path d="M37.516 18.0388C37.516 19.4459 36.968 20.7953 35.9926 21.7903C35.0172 22.7852 33.6942 23.3442 32.3147 23.3442C30.9352 23.3442 29.6123 22.7852 28.6368 21.7903C27.6614 20.7953 27.1134 19.4459 27.1134 18.0388C27.1134 16.6318 27.6614 15.2823 28.6368 14.2874C29.6123 13.2924 30.9352 12.7335 32.3147 12.7335C33.6942 12.7335 35.0172 13.2924 35.9926 14.2874C36.968 15.2823 37.516 16.6318 37.516 18.0388ZM37.5035 32.6095C37.3893 35.9813 36.564 39.2884 35.0839 42.3056C33.7202 44.9361 31.6725 47.1328 29.1655 48.6545C26.6585 50.1762 23.789 50.9642 20.8718 50.9321H18.7913V39.2603C18.782 37.2933 18.0118 35.4096 16.6482 34.0187C15.2846 32.6278 13.4379 31.8423 11.5095 31.8328H0.0665768V29.7106C0.0350812 26.7351 0.807647 23.8082 2.29952 21.2511C3.7914 18.6939 5.94495 16.6053 8.52391 15.2142C11.4819 13.7046 14.7242 12.8628 18.0298 12.7462C21.0608 8.75282 24.9533 5.52565 29.4051 3.31522C33.8569 1.10479 38.7482 -0.0294404 43.6994 0.000580781C44.5232 -0.00472929 45.34 0.155886 46.1029 0.473216C46.8658 0.790547 47.5597 1.25835 48.145 1.84981C48.7303 2.44127 49.1953 3.14474 49.5135 3.9199C49.8317 4.69507 49.9967 5.52666 49.9992 6.36702C50.0344 11.4267 48.9254 16.4265 46.7582 20.9778C44.591 25.5292 41.4241 29.5095 37.5035 32.6095ZM4.40239 27.5885H9.10854C10.6536 24.0784 12.4687 20.6986 14.5366 17.4807C13.1003 17.8216 11.7084 18.3344 10.3901 19.0086C8.80465 19.8626 7.43726 21.0835 6.39748 22.5734C5.3577 24.0633 4.67443 25.7808 4.40239 27.5885ZM32.8619 36.1726C29.7071 38.2819 26.3936 40.1332 22.9524 41.7092V46.5095C24.7246 46.2321 26.4084 45.5351 27.8691 44.4745C29.3298 43.414 30.5267 42.0192 31.3639 40.402C32.0249 39.0573 32.5277 37.6377 32.8619 36.1726ZM45.8381 6.3076C45.823 5.75513 45.5971 5.2305 45.2085 4.84528C44.82 4.46006 44.2995 4.24466 43.7576 4.24487C33.0221 4.55683 25.7611 8.75231 18.7539 18.7222C16.7985 21.5939 15.079 24.6254 13.6129 27.7858C15.8846 28.2174 17.9751 29.3404 19.6091 31.0071C21.2431 32.6738 22.3441 34.8061 22.7672 37.1233C25.8657 35.6279 28.8377 33.874 31.6531 31.8795C41.4191 24.7236 45.5323 17.3173 45.8381 6.3076ZM12.8036 37.9424C13.9661 39.1404 14.6182 40.7579 14.6182 42.4435C14.6182 44.1291 13.9661 45.7466 12.8036 46.9446C10.9165 48.8672 5.26789 50.0535 2.92522 50.4758L0 51L0.51389 48.0163C0.929995 45.6267 2.09093 39.8651 3.97588 37.9403C5.16542 36.783 6.74627 36.1376 8.39014 36.1379C10.034 36.1383 11.6146 36.7846 12.8036 37.9424ZM10.4692 42.4435C10.4699 42.1647 10.4164 41.8886 10.3118 41.631C10.2072 41.3735 10.0535 41.1397 9.85961 40.9431C9.46945 40.5453 8.94036 40.3218 8.38868 40.3218C7.837 40.3218 7.3079 40.5453 6.91775 40.9431C6.12453 42.4037 5.56743 43.9852 5.26789 45.6267C6.87781 45.3199 8.42889 44.751 9.86169 43.9417C10.0549 43.7453 10.2081 43.5118 10.3124 43.2546C10.4166 42.9975 10.4699 42.7218 10.4692 42.4435Z" fill="url(#paint0_linear_4523_272)"/>
<defs>
<linearGradient id="paint0_linear_4523_272" x1="50" y1="25.5" x2="0" y2="25.5" gradientUnits="userSpaceOnUse">
<stop stop-color="#78B5F8"/>
<stop offset="1" stop-color="#FA8EA5"/>
</linearGradient>
</defs>
</svg>
