<svg width="52" height="69" viewBox="0 0 52 69" fill="none" xmlns="http://www.w3.org/2000/svg">
<path d="M50.6083 36.6144H49.5131L49.1379 21.2243C49.1219 20.5733 48.8191 20.0157 48.4735 19.5049C48.277 19.2143 48.0497 18.9275 47.8026 18.6439C47.9831 18.1081 48.7033 18.1119 48.7033 16.8829C48.7033 15.0585 47.8628 13.0299 47.8628 13.0299C47.8628 13.0299 48.0952 15.1763 45.7158 15.577C44.8535 15.7223 44.2352 15.6679 43.7186 15.4912C43.4555 15.3446 43.1969 15.1968 42.919 15.0559C43.8812 12.601 43.3703 9.16479 43.1034 10.3535C42.7782 11.8041 41.4864 12.6522 40.1588 13.1496C39.8138 12.8123 40.1293 12.4423 40.7016 10.349C41.3418 8.00807 37.394 4.16087 37.394 4.16087C37.394 4.16087 37.8197 7.24375 36.487 8.7487C35.1542 10.253 31.2481 11.0327 31.2481 11.0327C31.2481 11.0327 31.9087 10.4227 32.2192 6.1344C32.5297 1.84615 25.6047 0 25.6047 0C25.6047 0 27.8721 2.62391 27.0981 5.44114C26.3242 8.25836 23.8014 9.41893 22.591 9.95984C21.3805 10.5008 18.8769 11.2491 18.8833 7.78851C18.8897 4.32794 12.5889 2.18734 12.5889 2.18734C12.5889 2.18734 14.8748 4.69602 13.9223 8.90874C13.5478 10.5667 12.1984 11.395 10.4995 12.1446C10.1032 11.5602 9.54439 10.9815 8.73846 10.4553C4.98536 8.00807 2.70136 8.00807 2.70136 8.00807C2.70136 8.00807 8.04392 11.8546 6.37253 13.8819C6.3034 13.9658 6.23234 14.0445 6.16129 14.1239C4.74659 14.9465 3.40935 16.0584 2.42227 17.7906C1.45438 19.4889 2.25007 27.2998 2.57718 30.1266L2.41906 36.6137H1.02869C0.460256 36.6137 0 37.1866 0 37.894V47.005C0 47.7124 0.460256 48.2853 1.02869 48.2853H2.13485L1.87815 58.8065C1.87815 58.8129 1.87943 58.8193 1.87943 58.8257L1.87815 58.875C1.84166 60.3825 2.91709 62.132 4.26905 62.8009L14.2148 67.7351C15.5668 68.404 17.9071 69 19.4153 69H32.5175C34.0257 69 36.366 68.4053 37.718 67.737L47.6637 62.7875C49.0157 62.1186 50.0917 60.3287 50.0546 58.8212L49.7979 48.2853H50.609C51.1774 48.2853 51.6377 47.7124 51.6377 47.005V37.8946C51.637 37.1879 51.1768 36.6144 50.6083 36.6144ZM45.9085 59.3711L36.0062 64.2989C35.1517 64.7214 33.4009 65.1554 32.5303 65.1592C32.1661 64.4378 31.4991 63.3758 30.8448 62.6441C29.8245 61.5028 29.7387 61.2077 28.1294 61.2077C27.6762 61.2077 26.1591 61.2077 25.8697 61.2077C25.8697 61.2077 25.8262 61.2077 25.7667 61.2077C25.4773 61.2077 23.9602 61.2077 23.507 61.2077C22.004 61.2077 21.8119 61.5034 20.7915 62.6441C20.1418 63.3707 19.4799 64.423 19.1138 65.1438C18.1888 65.067 16.6953 64.6785 15.9182 64.2937L5.97629 59.3609C5.91163 59.3071 5.75544 59.0581 5.71896 58.9102L6.40774 30.6413L9.05533 29.61L22.4207 32.0508C22.4796 32.1661 22.5391 32.2768 22.5986 32.3805C23.2522 33.5219 23.3073 33.817 24.3385 33.817C24.6291 33.817 25.6009 33.817 25.7865 33.817C25.7865 33.817 25.814 33.817 25.8524 33.817C26.0374 33.817 27.0098 33.817 27.3004 33.817C28.2632 33.817 28.3867 33.5212 29.0403 32.3805C29.0998 32.2768 29.1594 32.1654 29.2189 32.0502L42.5836 29.6094L45.5301 30.7571L46.2151 58.8616C46.1792 59.0107 46.0243 59.2693 45.9085 59.3711Z" fill="url(#paint0_linear_4523_259)"/>
<path d="M12.4711 42.4536L22.3701 43.8133V41.1663L12.4711 39.806V42.4536Z" fill="url(#paint1_linear_4523_259)"/>
<path d="M29.2669 43.8133L39.1659 42.4536V39.806L29.2669 41.1663V43.8133Z" fill="url(#paint2_linear_4523_259)"/>
<defs>
<linearGradient id="paint0_linear_4523_259" x1="7.04147" y1="38.7281" x2="54.4114" y2="58.2522" gradientUnits="userSpaceOnUse">
<stop stop-color="#FC9484"/>
<stop offset="0.485" stop-color="#F889C9"/>
<stop offset="1" stop-color="#74B6FA"/>
</linearGradient>
<linearGradient id="paint1_linear_4523_259" x1="13.8209" y1="42.0552" x2="17.5472" y2="47.1248" gradientUnits="userSpaceOnUse">
<stop stop-color="#FC9484"/>
<stop offset="0.485" stop-color="#F889C9"/>
<stop offset="1" stop-color="#74B6FA"/>
</linearGradient>
<linearGradient id="paint2_linear_4523_259" x1="30.6168" y1="42.0552" x2="34.3431" y2="47.1248" gradientUnits="userSpaceOnUse">
<stop stop-color="#FC9484"/>
<stop offset="0.485" stop-color="#F889C9"/>
<stop offset="1" stop-color="#74B6FA"/>
</linearGradient>
</defs>
</svg>
