<svg width="55" height="50" viewBox="0 0 55 50" fill="none" xmlns="http://www.w3.org/2000/svg">
<path d="M55 8.33333V25H50.4167V29.1667H45.8333V6.25C45.8333 5.10208 44.8044 4.16667 43.5417 4.16667H4.58333V29.1667H0V0H43.5417C47.3321 0 50.4167 2.80417 50.4167 6.25V8.33333H55ZM9.16667 8.33333H41.25V25H9.16667V8.33333ZM0.765417 38.5437L3.39854 40.8625L5.5 38.8917V50H9.16667V33.2958H6.35708L0.765417 38.5437ZM52.1354 44.7542C50.5542 44.7542 49.2708 45.9208 49.2708 47.3583C49.2708 48.7958 50.5542 49.9625 52.1354 49.9625C53.7167 49.9625 55 48.7958 55 47.3583C55 45.9208 53.7167 44.7542 52.1354 44.7542ZM38.9583 35.9C38.9583 37.3375 40.2417 38.5042 41.8229 38.5042C43.4042 38.5042 44.6875 37.3375 44.6875 35.9C44.6875 34.4625 43.4042 33.2958 41.8229 33.2958C40.2417 33.2958 38.9583 34.4625 38.9583 35.9ZM38.6535 49.9625H43.0329L55 33.2958H50.6206L38.6535 49.9625ZM22.9167 38.5417V44.7917C22.9167 47.6687 20.3523 50 17.1875 50C14.0227 50 11.4583 47.6687 11.4583 44.7917V38.5417C11.4583 35.6646 14.0227 33.3333 17.1875 33.3333C20.3523 33.3333 22.9167 35.6646 22.9167 38.5417ZM19.25 38.5417C19.25 37.5083 18.3242 36.6667 17.1875 36.6667C16.0508 36.6667 15.125 37.5083 15.125 38.5417V44.7917C15.125 45.825 16.0508 46.6667 17.1875 46.6667C18.3242 46.6667 19.25 45.825 19.25 44.7917V38.5417ZM36.6667 38.5417V44.7917C36.6667 47.6687 34.1023 50 30.9375 50C27.7727 50 25.2083 47.6687 25.2083 44.7917V38.5417C25.2083 35.6646 27.7727 33.3333 30.9375 33.3333C34.1023 33.3333 36.6667 35.6646 36.6667 38.5417ZM33 38.5417C33 37.5083 32.0742 36.6667 30.9375 36.6667C29.8008 36.6667 28.875 37.5083 28.875 38.5417V44.7917C28.875 45.825 29.8008 46.6667 30.9375 46.6667C32.0742 46.6667 33 45.825 33 44.7917V38.5417Z" fill="url(#paint0_linear_4523_276)"/>
<defs>
<linearGradient id="paint0_linear_4523_276" x1="55" y1="25" x2="0" y2="25" gradientUnits="userSpaceOnUse">
<stop stop-color="#78B4F8"/>
<stop offset="1" stop-color="#FA8EA8"/>
</linearGradient>
</defs>
</svg>
