<svg width="35" height="50" viewBox="0 0 35 50" fill="none" xmlns="http://www.w3.org/2000/svg">
<path d="M17.6119 50H9.67826L13.8029 33.3333H5.27937C4.45563 33.333 3.6434 33.138 2.90757 32.764C2.17174 32.3899 1.53271 31.8472 1.04156 31.1792C0.550399 30.5112 0.220729 29.7363 0.0788885 28.9166C-0.0629516 28.0969 -0.0130288 27.2551 0.224667 26.4583L8.14596 0H27.6698L21.4829 16.6667H29.7795C30.7235 16.6673 31.6496 16.9263 32.4595 17.4161C33.2694 17.9059 33.9328 18.6083 34.3791 19.4485C34.8255 20.2888 35.0381 21.2355 34.9944 22.188C34.9507 23.1406 34.6523 24.0634 34.131 24.8583L17.6119 50ZM14.9619 45.8333H15.3991L30.6931 22.5542C30.8027 22.3872 30.8654 22.1934 30.8747 21.9933C30.8839 21.7932 30.8393 21.5943 30.7456 21.4178C30.6519 21.2413 30.5125 21.0937 30.3424 20.9908C30.1723 20.8879 29.9778 20.8335 29.7795 20.8333H15.5311L21.718 4.16667H11.2064L4.17191 27.6583C4.1194 27.833 4.10813 28.0177 4.13901 28.1976C4.16988 28.3775 4.24204 28.5475 4.34971 28.6942C4.45737 28.8408 4.59754 28.9599 4.75898 29.042C4.92042 29.124 5.09864 29.1667 5.27937 29.1667H19.0968L14.9619 45.8333Z" fill="url(#paint0_linear_4523_270)"/>
<defs>
<linearGradient id="paint0_linear_4523_270" x1="35" y1="25" x2="0" y2="25" gradientUnits="userSpaceOnUse">
<stop stop-color="#77B5F8"/>
<stop offset="1" stop-color="#FA8EA5"/>
</linearGradient>
</defs>
</svg>
