<svg width="56" height="61" viewBox="0 0 56 61" fill="none" xmlns="http://www.w3.org/2000/svg">
<path d="M55.9987 32.2646C55.9987 29.3259 55.9987 29.0245 55.9987 28.0449C55.9987 27.1658 55.3789 26.4134 54.397 26.267C54.5525 24.6545 54.784 23.3572 54.784 22.9698C54.784 22.3533 55.4163 14.2324 54.4928 11.1518C53.5693 8.07062 53.7956 6.92493 52.3809 6.29136C51.4397 5.86985 49.2872 6.30974 49.2872 6.30974C49.2872 6.30974 50.3294 4.75108 50.227 4.03216C50.1247 3.31323 46.3141 0.838681 47.033 2.00932C47.6928 3.08344 47.313 4.68018 47.2461 4.93558C47.2658 4.74386 47.0205 3.80696 41.6096 1.42564C38.3926 0.00945422 33.2978 -0.167815 28.5808 0.111877C24.273 0.367276 20.2808 1.00348 18.3217 1.42564C14.2179 2.31067 7.75499 7.52371 7.13978 8.65364C6.52458 9.78357 5.05412 13.0808 5.05412 13.0808C5.05412 13.0808 4.78062 13.583 4.16476 13.583C3.54956 13.583 2.6261 12.4531 2.9337 13.583C3.2413 14.713 4.06245 16.2532 4.06245 16.2532C4.06245 16.2532 3.28328 16.0642 2.35981 15.6532C1.43635 15.2422 0 14.3184 0 14.3184C0 14.3184 8.79588e-08 14.3184 0.102316 16.4752C0.204631 18.6319 3.59022 24.8961 5.02657 25.3071C5.17808 25.3505 5.37681 25.3905 5.6103 25.426L5.62538 26.3044C4.75177 26.5132 4.20739 27.2223 4.20739 28.0449C4.20739 29.0245 4.20739 29.3259 4.20739 32.2646C4.20739 35.6557 4.13263 38.4441 5.10659 39.1223C5.29154 39.251 5.48765 39.3718 5.69162 39.4867L5.42272 50.545C5.42272 50.5516 5.42403 50.5582 5.42403 50.5647L5.42272 50.6153C5.38533 52.1615 6.48719 53.9558 7.87239 54.6419L18.0626 59.7026C19.4478 60.3887 21.8457 61 23.3909 61H36.8152C38.3604 61 40.7583 60.3901 42.1435 59.7046L52.3337 54.6281C53.7189 53.942 54.8214 52.1063 54.7834 50.5601L54.5263 39.9988C54.5263 39.9988 54.5217 39.8097 54.5138 39.4867C54.7178 39.3712 54.9145 39.251 55.0995 39.1223C56.0734 38.4434 55.9987 35.6551 55.9987 32.2646ZM9.95214 26.2355L9.99084 24.6519C11.5944 24.5803 13.2735 24.4011 14.4855 24.1181C17.5635 23.3992 21.7997 20.3613 21.7997 20.3613C22.2739 21.1636 21.4095 21.3376 20.8802 22.9284C20.3673 24.4687 21.946 25.3905 21.946 25.3905C21.946 25.3905 22.1126 23.7544 23.791 21.7381C25.6359 19.5222 28.1708 20.9765 28.1708 20.9765C31.0055 22.2305 33.8369 21.528 35.0857 21.182C36.3344 20.8353 40.0007 18.1691 42.3599 17.7581C44.7191 17.3471 48.733 18.9267 49.6564 19.4408C49.8256 19.5347 49.9686 19.6654 50.0985 19.8105L50.2552 26.2361C41.2895 26.2355 18.9179 26.2355 9.95214 26.2355ZM50.0526 30.7598V32.5469C50.0526 33.6079 49.198 34.4687 48.1433 34.4687H12.0634C11.0087 34.4687 10.1542 33.6086 10.1542 32.5469V30.7598C10.1542 29.6988 11.0087 28.8381 12.0634 28.8381H48.1433C49.1973 28.8387 50.0526 29.6988 50.0526 30.7598ZM50.5353 51.1235L40.3897 56.1776C39.5102 56.6129 37.7019 57.0607 36.8152 57.0607H23.3909C22.5048 57.0607 20.6972 56.6122 19.8085 56.1717L9.62224 51.1123C9.556 51.0571 9.39597 50.8018 9.35858 50.6501L9.60978 40.3264C12.5422 40.3264 24.0094 40.3264 24.8023 40.3264C25.6458 40.3264 26.4807 39.5865 26.4807 39.5865L27.837 36.3326H32.3704L33.7267 39.5865C33.7267 39.5865 34.5623 40.3264 35.4051 40.3264C36.1974 40.3264 47.6678 40.3264 50.5983 40.3264L50.8481 50.5995C50.8127 50.7538 50.654 51.0197 50.5353 51.1235Z" fill="url(#paint0_linear_4523_257)"/>
<defs>
<linearGradient id="paint0_linear_4523_257" x1="56" y1="30.5" x2="0" y2="30.5" gradientUnits="userSpaceOnUse">
<stop stop-color="#FC9483"/>
<stop offset="0.475" stop-color="#F889CA"/>
<stop offset="1" stop-color="#72B7FA"/>
</linearGradient>
</defs>
</svg>
